<?xml version="1.0" standalone="no"?>
<!DOCTYPE svg PUBLIC "-//W3C//DTD SVG 20010904//EN"
 "http://www.w3.org/TR/2001/REC-SVG-20010904/DTD/svg10.dtd">
<svg version="1.0" xmlns="http://www.w3.org/2000/svg"
 width="700.000000pt" height="700.000000pt" viewBox="0 0 700.000000 700.000000"
 preserveAspectRatio="xMidYMid meet">
<metadata>
Created by potrace 1.11, written by Peter Selinger 2001-2013
</metadata>
<g transform="translate(0.000000,700.000000) scale(0.100000,-0.100000)"
fill="#000000" stroke="none">
<path d="M3445 6926 c-48 -33 -54 -35 -170 -40 -66 -3 -131 -8 -145 -10 -14
-3 -45 -7 -70 -10 -108 -14 -141 -19 -245 -41 -296 -62 -544 -146 -810 -276
-794 -387 -1417 -1084 -1716 -1918 -20 -58 -29 -68 -96 -118 -40 -31 -73 -58
-73 -62 0 -3 14 -48 31 -99 l31 -92 -21 -98 c-11 -53 -25 -133 -31 -177 -6
-44 -13 -91 -15 -105 -24 -168 -25 -599 0 -780 2 -19 7 -57 11 -85 28 -236
118 -567 225 -826 52 -126 190 -402 215 -430 8 -8 14 -19 14 -23 0 -12 128
-203 194 -291 125 -165 336 -393 484 -522 26 -22 40 -51 70 -143 l39 -115 114
-1 114 0 115 -73 c135 -85 381 -209 530 -268 131 -51 373 -129 430 -140 14 -2
41 -8 60 -13 20 -5 71 -16 115 -25 44 -8 89 -17 100 -19 18 -3 78 -12 150 -21
150 -19 506 -26 683 -12 74 6 224 25 322 41 106 18 339 77 456 115 265 86 542
218 779 370 l70 45 112 1 c62 0 114 3 116 5 2 3 21 55 41 116 35 105 40 114
90 157 106 93 260 253 362 377 404 490 662 1077 749 1700 39 273 38 719 0 930
-1 8 -6 40 -10 70 -9 67 -11 77 -30 166 l-16 70 30 96 c17 52 31 97 31 100 0
3 -33 31 -74 61 -57 43 -77 65 -87 94 -81 246 -255 586 -426 831 -220 316
-531 626 -848 847 -317 221 -713 405 -1066 495 -111 29 -297 68 -348 74 -58 7
-129 17 -161 22 -14 2 -79 7 -145 10 -115 6 -122 7 -170 40 -28 19 -52 34 -55
34 -3 0 -27 -16 -55 -34z m89 -474 c22 -20 1167 -883 1216 -917 16 -11 193
-143 392 -294 200 -151 551 -415 780 -588 230 -172 420 -318 423 -323 5 -8
-63 -240 -111 -375 -11 -33 -161 -500 -294 -920 -76 -238 -263 -826 -285 -895
-14 -41 -45 -140 -71 -220 -25 -80 -54 -170 -64 -200 -10 -30 -44 -136 -75
-235 -32 -99 -70 -218 -85 -265 l-27 -85 -1821 -2 -1821 -2 -121 372 c-67 205
-134 410 -150 457 -30 91 -88 269 -305 935 -75 231 -147 452 -160 490 -102
308 -295 905 -299 925 -5 23 16 41 230 200 130 96 245 183 257 192 12 9 337
254 722 543 385 290 713 536 729 548 397 302 901 677 909 677 6 0 20 -8 31
-18z m-959 -173 c-61 -45 -159 -118 -220 -162 -60 -45 -234 -173 -385 -286
-151 -112 -324 -241 -385 -286 -60 -45 -207 -154 -327 -242 -295 -220 -284
-214 -220 -123 333 476 784 842 1312 1066 70 29 309 113 325 114 5 0 -40 -36
-100 -81z m1862 47 c21 -8 72 -27 113 -41 490 -178 966 -527 1296 -950 91
-116 169 -229 152 -220 -7 4 -76 55 -153 112 -77 57 -225 167 -330 244 -190
140 -256 190 -735 545 -140 104 -271 200 -290 214 -19 13 -37 27 -40 30 -5 5
-77 58 -115 85 -18 12 -15 13 22 4 24 -5 60 -15 80 -23z m-3628 -3968 c72
-218 131 -400 131 -405 0 -25 -151 274 -205 407 -39 96 -119 333 -129 384 -3
12 -10 44 -16 71 -5 28 -13 61 -15 75 -3 14 -10 45 -15 70 -11 52 -30 193 -30
218 1 18 56 -145 279 -820z m5657 785 c-3 -27 -8 -64 -11 -83 -25 -187 -76
-390 -151 -599 -42 -117 -232 -517 -241 -507 -2 2 56 185 129 407 74 222 165
500 204 616 38 117 71 213 73 213 1 0 0 -21 -3 -47z m-2016 -2483 c0 -6 -196
-63 -290 -85 -74 -17 -97 -21 -195 -36 -38 -6 -81 -12 -95 -15 -168 -28 -570
-25 -785 7 -38 6 -86 13 -105 16 -100 14 -430 101 -430 113 0 3 428 5 950 5
523 0 950 -2 950 -5z"/>
</g>
</svg>
